<svg xmlns="http://www.w3.org/2000/svg" style="display:none">
  <defs>
    <symbol id="breakfast" viewBox="0 0 24 24"><path d="M4 11h16M5 11v3a6 6 0 0 0 12 0v-3M8 8V4m4 4V4m4 4V4" fill="none" stroke="currentColor" stroke-width="1.5" stroke-linecap="round" stroke-linejoin="round"/></symbol>
    <symbol id="appetizers" viewBox="0 0 24 24"><path d="M5 12c4-5 10-5 14 0M7 14c3 3 7 3 10 0M12 4v5m-5-1 3 3m7-3-3 3" fill="none" stroke="currentColor" stroke-width="1.5" stroke-linecap="round" stroke-linejoin="round"/></symbol>
    <symbol id="grills" viewBox="0 0 24 24"><path d="M8 14a4 4 0 0 1 8 0c0 3-2 5-4 7-2-2-4-4-4-7Z M12 3c2 2 3 4 1 6M9 8c-.8-1-.8-2 .5-3M15 8c.8-1 .8-2-.5-3" fill="none" stroke="currentColor" stroke-width="1.5" stroke-linecap="round" stroke-linejoin="round"/></symbol>
    <symbol id="sandwiches" viewBox="0 0 24 24"><path d="M4 12 12 5l8 7v5a2 2 0 0 1-2 2H6a2 2 0 0 1-2-2v-5Z M7 13h10M8 16h8" fill="none" stroke="currentColor" stroke-width="1.5" stroke-linecap="round" stroke-linejoin="round"/></symbol>
    <symbol id="desserts" viewBox="0 0 24 24"><path d="M5 11h14v8H5v-8Z M7 11V8a5 5 0 0 1 10 0v3M9 15h.01M12 15h.01M15 15h.01" fill="none" stroke="currentColor" stroke-width="1.5" stroke-linecap="round" stroke-linejoin="round"/></symbol>
    <symbol id="drinks" viewBox="0 0 24 24"><path d="M6 3h12l-1 18H7L6 3Z M8 8h8M10 3l1 18" fill="none" stroke="currentColor" stroke-width="1.5" stroke-linecap="round" stroke-linejoin="round"/></symbol>
    <symbol id="check" viewBox="0 0 24 24"><path d="m5 13 4 4L19 7" fill="none" stroke="currentColor" stroke-width="1.5" stroke-linecap="round" stroke-linejoin="round"/></symbol>
    <symbol id="x" viewBox="0 0 24 24"><path d="M6 6l12 12M18 6 6 18" fill="none" stroke="currentColor" stroke-width="1.5" stroke-linecap="round" stroke-linejoin="round"/></symbol>
    <symbol id="warning" viewBox="0 0 24 24"><path d="M12 9v4m0 4h.01M10.3 4.5 2.8 18a2 2 0 0 0 1.7 3h15a2 2 0 0 0 1.7-3L13.7 4.5a2 2 0 0 0-3.4 0Z" fill="none" stroke="currentColor" stroke-width="1.5" stroke-linecap="round" stroke-linejoin="round"/></symbol>
    <symbol id="star" viewBox="0 0 24 24"><path d="m12 3 2.7 5.5 6.1.9-4.4 4.3 1 6-5.4-2.9-5.4 2.9 1-6-4.4-4.3 6.1-.9L12 3Z" fill="none" stroke="currentColor" stroke-width="1.5" stroke-linecap="round" stroke-linejoin="round"/></symbol>
    <symbol id="location" viewBox="0 0 24 24"><path d="M12 21s7-5 7-11a7 7 0 1 0-14 0c0 6 7 11 7 11Z M12 10.5h.01" fill="none" stroke="currentColor" stroke-width="1.5" stroke-linecap="round" stroke-linejoin="round"/></symbol>
    <symbol id="phone" viewBox="0 0 24 24"><path d="M6.6 3.8 4.8 5.6c-.9.9-.8 3 .4 5.3 1.1 2.2 3 4.6 5 6.5 2 1.9 4.1 2.7 5.3 1.5l1.8-1.8-3.4-3.4-1.7 1.1c-1.7-.8-3.1-2.2-4-4l1.1-1.7-2.7-5.3Z" fill="none" stroke="currentColor" stroke-width="1.5" stroke-linecap="round" stroke-linejoin="round"/></symbol>
    <symbol id="car" viewBox="0 0 24 24"><path d="M4 14l2-5a3 3 0 0 1 2.8-2h6.4A3 3 0 0 1 18 9l2 5v4h-2a2 2 0 0 1-4 0H10a2 2 0 0 1-4 0H4v-4Z M6 14h12M7 11h10" fill="none" stroke="currentColor" stroke-width="1.5" stroke-linecap="round" stroke-linejoin="round"/></symbol>
    <symbol id="bike" viewBox="0 0 24 24"><path d="M5.5 17a3.5 3.5 0 1 0 0-7 3.5 3.5 0 0 0 0 7ZM18.5 17a3.5 3.5 0 1 0 0-7 3.5 3.5 0 0 0 0 7ZM8 13h4l3-6h2M12 13l-2-5H8" fill="none" stroke="currentColor" stroke-width="1.5" stroke-linecap="round" stroke-linejoin="round"/></symbol>
    <symbol id="clock" viewBox="0 0 24 24"><path d="M12 6v6l4 2M21 12a9 9 0 1 1-18 0 9 9 0 0 1 18 0Z" fill="none" stroke="currentColor" stroke-width="1.5" stroke-linecap="round" stroke-linejoin="round"/></symbol>
    <symbol id="bell" viewBox="0 0 24 24"><path d="M15 17H9m9-1V11a6 6 0 0 0-12 0v5l-2 2h16l-2-2ZM10 20h4" fill="none" stroke="currentColor" stroke-width="1.5" stroke-linecap="round" stroke-linejoin="round"/></symbol>
    <symbol id="user" viewBox="0 0 24 24"><path d="M12 12a4 4 0 1 0 0-8 4 4 0 0 0 0 8ZM4 21a8 8 0 0 1 16 0" fill="none" stroke="currentColor" stroke-width="1.5" stroke-linecap="round" stroke-linejoin="round"/></symbol>
    <symbol id="home" viewBox="0 0 24 24"><path d="m3 11 9-8 9 8v9a1 1 0 0 1-1 1h-5v-6H9v6H4a1 1 0 0 1-1-1v-9Z" fill="none" stroke="currentColor" stroke-width="1.5" stroke-linecap="round" stroke-linejoin="round"/></symbol>
    <symbol id="chart" viewBox="0 0 24 24"><path d="M4 19V5M4 19h16M8 16V9m4 7V6m4 10v-4" fill="none" stroke="currentColor" stroke-width="1.5" stroke-linecap="round" stroke-linejoin="round"/></symbol>
    <symbol id="search" viewBox="0 0 24 24"><path d="m20 20-4-4M10.5 18a7.5 7.5 0 1 1 0-15 7.5 7.5 0 0 1 0 15Z" fill="none" stroke="currentColor" stroke-width="1.5" stroke-linecap="round" stroke-linejoin="round"/></symbol>
    <symbol id="calendar" viewBox="0 0 24 24"><path d="M7 3v4m10-4v4M4 9h16M5 5h14a1 1 0 0 1 1 1v14H4V6a1 1 0 0 1 1-1Z" fill="none" stroke="currentColor" stroke-width="1.5" stroke-linecap="round" stroke-linejoin="round"/></symbol>
    <symbol id="wallet" viewBox="0 0 24 24"><path d="M4 7h14a2 2 0 0 1 2 2v9H5a2 2 0 0 1-2-2V6a2 2 0 0 1 2-2h12M16 13h.01" fill="none" stroke="currentColor" stroke-width="1.5" stroke-linecap="round" stroke-linejoin="round"/></symbol>
    <symbol id="receipt" viewBox="0 0 24 24"><path d="M6 3h12v18l-3-2-3 2-3-2-3 2V3Zm4 6h6M10 13h6" fill="none" stroke="currentColor" stroke-width="1.5" stroke-linecap="round" stroke-linejoin="round"/></symbol>
    <symbol id="fire" viewBox="0 0 24 24"><path d="M12 22c4 0 7-3 7-7 0-3-2-5-5-8 0 3-2 4-3 5 0-4-2-6-4-8 0 5-2 7-2 11 0 4 3 7 7 7Z" fill="none" stroke="currentColor" stroke-width="1.5" stroke-linecap="round" stroke-linejoin="round"/></symbol>
    <symbol id="chef" viewBox="0 0 24 24"><path d="M7 10a4 4 0 1 1 2-7 4 4 0 0 1 6 0 4 4 0 1 1 2 7v9H7v-9Zm0 5h10" fill="none" stroke="currentColor" stroke-width="1.5" stroke-linecap="round" stroke-linejoin="round"/></symbol>
    <symbol id="driver" viewBox="0 0 24 24"><path d="M5 17a3 3 0 1 0 0-6 3 3 0 0 0 0 6Zm14 0a3 3 0 1 0 0-6 3 3 0 0 0 0 6ZM8 14h4l3-7h3M12 14l-2-5H7" fill="none" stroke="currentColor" stroke-width="1.5" stroke-linecap="round" stroke-linejoin="round"/></symbol>
    <symbol id="package" viewBox="0 0 24 24"><path d="m12 3 8 4.5v9L12 21l-8-4.5v-9L12 3Zm0 9 8-4.5M12 12 4 7.5M12 12v9" fill="none" stroke="currentColor" stroke-width="1.5" stroke-linecap="round" stroke-linejoin="round"/></symbol>
    <symbol id="settings" viewBox="0 0 24 24"><path d="M12 15a3 3 0 1 0 0-6 3 3 0 0 0 0 6Zm8-3h-2m-12 0H4m13.7 5.7-1.4-1.4M7.7 7.7 6.3 6.3m11.4 0-1.4 1.4M7.7 16.3l-1.4 1.4" fill="none" stroke="currentColor" stroke-width="1.5" stroke-linecap="round" stroke-linejoin="round"/></symbol>
    <symbol id="trash" viewBox="0 0 24 24"><path d="M4 7h16M9 7V4h6v3m-8 0 1 14h8l1-14M10 11v6m4-6v6" fill="none" stroke="currentColor" stroke-width="1.5" stroke-linecap="round" stroke-linejoin="round"/></symbol>
    <symbol id="edit" viewBox="0 0 24 24"><path d="M4 20h4L19 9l-4-4L4 16v4Zm12-14 2-2 2 2-2 2" fill="none" stroke="currentColor" stroke-width="1.5" stroke-linecap="round" stroke-linejoin="round"/></symbol>
    <symbol id="plus" viewBox="0 0 24 24"><path d="M12 5v14M5 12h14" fill="none" stroke="currentColor" stroke-width="1.5" stroke-linecap="round" stroke-linejoin="round"/></symbol>
    <symbol id="refresh" viewBox="0 0 24 24"><path d="M20 12a8 8 0 0 1-13.6 5.7L4 15m0 0v5h5M4 12A8 8 0 0 1 17.6 6.3L20 9m0 0V4h-5" fill="none" stroke="currentColor" stroke-width="1.5" stroke-linecap="round" stroke-linejoin="round"/></symbol>
    <symbol id="store" viewBox="0 0 24 24"><path d="M4 10h16l-1-5H5l-1 5Zm2 0v10h12V10M9 20v-6h6v6" fill="none" stroke="currentColor" stroke-width="1.5" stroke-linecap="round" stroke-linejoin="round"/></symbol>
    <symbol id="dish" viewBox="0 0 24 24"><path d="M4 12a8 8 0 0 1 16 0H4Zm0 4h16M6 20h12" fill="none" stroke="currentColor" stroke-width="1.5" stroke-linecap="round" stroke-linejoin="round"/></symbol>
    <symbol id="shield" viewBox="0 0 24 24"><path d="M12 3 5 6v5c0 5 3 8 7 10 4-2 7-5 7-10V6l-7-3Z" fill="none" stroke="currentColor" stroke-width="1.5" stroke-linecap="round" stroke-linejoin="round"/></symbol>
    <symbol id="key" viewBox="0 0 24 24"><path d="M14 10a4 4 0 1 0-2.9 3.9L13 16h3v3h3v-3h2l-5.1-5.1A4 4 0 0 0 14 10Z M7 10h.01" fill="none" stroke="currentColor" stroke-width="1.5" stroke-linecap="round" stroke-linejoin="round"/></symbol>
    <symbol id="globe" viewBox="0 0 24 24"><path d="M21 12a9 9 0 1 1-18 0 9 9 0 0 1 18 0ZM3 12h18M12 3c2 2.5 3 5.5 3 9s-1 6.5-3 9c-2-2.5-3-5.5-3-9s1-6.5 3-9Z" fill="none" stroke="currentColor" stroke-width="1.5" stroke-linecap="round" stroke-linejoin="round"/></symbol>
    <symbol id="trending-up" viewBox="0 0 24 24"><path d="m4 16 6-6 4 4 6-7M15 7h5v5" fill="none" stroke="currentColor" stroke-width="1.5" stroke-linecap="round" stroke-linejoin="round"/></symbol>
    <symbol id="trending-down" viewBox="0 0 24 24"><path d="m4 8 6 6 4-4 6 7M15 17h5v-5" fill="none" stroke="currentColor" stroke-width="1.5" stroke-linecap="round" stroke-linejoin="round"/></symbol>
    <symbol id="message" viewBox="0 0 24 24"><path d="M4 5h16v11H8l-4 4V5Z" fill="none" stroke="currentColor" stroke-width="1.5" stroke-linecap="round" stroke-linejoin="round"/></symbol>
    <symbol id="trophy" viewBox="0 0 24 24"><path d="M8 4h8v4a4 4 0 0 1-8 0V4Zm0 2H4a4 4 0 0 0 4 4m8-4h4a4 4 0 0 1-4 4m-4 2v5m-3 3h6" fill="none" stroke="currentColor" stroke-width="1.5" stroke-linecap="round" stroke-linejoin="round"/></symbol>
    <symbol id="box" viewBox="0 0 24 24"><path d="M5 8h14v11H5V8Zm2-4h10l2 4H5l2-4Zm5 4v11" fill="none" stroke="currentColor" stroke-width="1.5" stroke-linecap="round" stroke-linejoin="round"/></symbol>
    <symbol id="question" viewBox="0 0 24 24"><path d="M12 17h.01M9.5 9a2.5 2.5 0 1 1 4.2 1.8c-1.2 1-1.7 1.6-1.7 3.2M21 12a9 9 0 1 1-18 0 9 9 0 0 1 18 0Z" fill="none" stroke="currentColor" stroke-width="1.5" stroke-linecap="round" stroke-linejoin="round"/></symbol>
    <symbol id="arrow-right" viewBox="0 0 24 24"><path d="M5 12h14m-6-6 6 6-6 6" fill="none" stroke="currentColor" stroke-width="1.5" stroke-linecap="round" stroke-linejoin="round"/></symbol>
    <symbol id="arrow-left" viewBox="0 0 24 24"><path d="M19 12H5m6-6-6 6 6 6" fill="none" stroke="currentColor" stroke-width="1.5" stroke-linecap="round" stroke-linejoin="round"/></symbol>
    <symbol id="info" viewBox="0 0 24 24"><path d="M12 11v6m0-10h.01M21 12a9 9 0 1 1-18 0 9 9 0 0 1 18 0Z" fill="none" stroke="currentColor" stroke-width="1.5" stroke-linecap="round" stroke-linejoin="round"/></symbol>
    <symbol id="sparkle" viewBox="0 0 24 24"><path d="M12 3 9.5 9.5 3 12l6.5 2.5L12 21l2.5-6.5L21 12l-6.5-2.5L12 3Z" fill="none" stroke="currentColor" stroke-width="1.5" stroke-linecap="round" stroke-linejoin="round"/></symbol>
    <symbol id="sos" viewBox="0 0 24 24"><path d="M12 8v5m0 3h.01M5 5l14 14M21 12a9 9 0 1 1-18 0 9 9 0 0 1 18 0Z" fill="none" stroke="currentColor" stroke-width="1.5" stroke-linecap="round" stroke-linejoin="round"/></symbol>
    <symbol id="note" viewBox="0 0 24 24"><path d="M6 3h9l3 3v15H6V3Zm9 0v4h4M9 12h6M9 16h4" fill="none" stroke="currentColor" stroke-width="1.5" stroke-linecap="round" stroke-linejoin="round"/></symbol>
    <symbol id="laptop" viewBox="0 0 24 24"><path d="M5 5h14v10H5V5Zm-2 14h18" fill="none" stroke="currentColor" stroke-width="1.5" stroke-linecap="round" stroke-linejoin="round"/></symbol>
    <symbol id="users" viewBox="0 0 24 24"><path d="M9 11a4 4 0 1 0 0-8 4 4 0 0 0 0 8Zm7-1a3 3 0 1 0 0-6M3 21a6 6 0 0 1 12 0m2-8a5 5 0 0 1 4 8" fill="none" stroke="currentColor" stroke-width="1.5" stroke-linecap="round" stroke-linejoin="round"/></symbol>
    <symbol id="pizza" viewBox="0 0 24 24"><path d="M4 20 20 4c-5-1-11 1-16 6v10Zm6-6h.01m3-3h.01m-5 7h.01" fill="none" stroke="currentColor" stroke-width="1.5" stroke-linecap="round" stroke-linejoin="round"/></symbol>
    <symbol id="app" viewBox="0 0 24 24"><path d="M7 3h10v18H7V3Zm4 15h2" fill="none" stroke="currentColor" stroke-width="1.5" stroke-linecap="round" stroke-linejoin="round"/></symbol>
    <symbol id="email" viewBox="0 0 24 24"><path d="M4 6h16v12H4V6Zm0 2 8 5 8-5" fill="none" stroke="currentColor" stroke-width="1.5" stroke-linecap="round" stroke-linejoin="round"/></symbol>
    <symbol id="monitor" viewBox="0 0 24 24"><path d="M4 5h16v11H4V5Zm5 16h6m-3-5v5" fill="none" stroke="currentColor" stroke-width="1.5" stroke-linecap="round" stroke-linejoin="round"/></symbol>
    <symbol id="bank" viewBox="0 0 24 24"><path d="m4 9 8-5 8 5H4Zm2 2v7m4-7v7m4-7v7m4-7v7M4 20h16" fill="none" stroke="currentColor" stroke-width="1.5" stroke-linecap="round" stroke-linejoin="round"/></symbol>
    <symbol id="map" viewBox="0 0 24 24"><path d="m9 18-5 2V6l5-2 6 2 5-2v14l-5 2-6-2Zm0-14v14m6-12v14" fill="none" stroke="currentColor" stroke-width="1.5" stroke-linecap="round" stroke-linejoin="round"/></symbol>
    <symbol id="sleep" viewBox="0 0 24 24"><path d="M6 7h7l-7 8h8M15 5h4l-4 5h5" fill="none" stroke="currentColor" stroke-width="1.5" stroke-linecap="round" stroke-linejoin="round"/></symbol>
    <symbol id="alphabet" viewBox="0 0 24 24"><path d="M4 17 9 5l5 12m-8-4h6m4-5h4m-4 4h3m-3 4h4" fill="none" stroke="currentColor" stroke-width="1.5" stroke-linecap="round" stroke-linejoin="round"/></symbol>
    <symbol id="eye" viewBox="0 0 24 24"><path d="M2 12s4-6 10-6 10 6 10 6-4 6-10 6S2 12 2 12Zm10 3a3 3 0 1 0 0-6 3 3 0 0 0 0 6Z" fill="none" stroke="currentColor" stroke-width="1.5" stroke-linecap="round" stroke-linejoin="round"/></symbol>
    <symbol id="cash" viewBox="0 0 24 24"><path d="M4 7h16v10H4V7Zm4 0a3 3 0 0 1-3 3m14 0a3 3 0 0 1-3-3M8 17a3 3 0 0 0-3-3m14 0a3 3 0 0 0-3 3m-4-2a3 3 0 1 0 0-6 3 3 0 0 0 0 6Z" fill="none" stroke="currentColor" stroke-width="1.5" stroke-linecap="round" stroke-linejoin="round"/></symbol>
    <symbol id="moon" viewBox="0 0 24 24"><path d="M20 15.5A8.5 8.5 0 0 1 8.5 4 8.5 8.5 0 1 0 20 15.5Z" fill="none" stroke="currentColor" stroke-width="1.5" stroke-linecap="round" stroke-linejoin="round"/></symbol>
    <symbol id="pin" viewBox="0 0 24 24"><path d="M12 21v-7m0 0a5 5 0 1 0-5-5c0 2.8 5 5 5 5Zm0 0s5-2.2 5-5" fill="none" stroke="currentColor" stroke-width="1.5" stroke-linecap="round" stroke-linejoin="round"/></symbol>
    <symbol id="run" viewBox="0 0 24 24"><path d="M13 4a2 2 0 1 0 0 4 2 2 0 0 0 0-4Zm-2 6-3 4 4 2 2 5m-1-11 4 3 3-2M8 21l3-5" fill="none" stroke="currentColor" stroke-width="1.5" stroke-linecap="round" stroke-linejoin="round"/></symbol>
    <symbol id="alert-dot" viewBox="0 0 24 24"><path d="M12 8v5m0 3h.01" fill="none" stroke="currentColor" stroke-width="1.5" stroke-linecap="round" stroke-linejoin="round"/><circle cx="12" cy="12" r="9" fill="none" stroke="currentColor" stroke-width="1.5"/></symbol>
  </defs>
</svg>
