<svg xmlns="http://www.w3.org/2000/svg" xml:space="preserve" viewBox="0 0 326 766"><path fill="currentColor" d="M1 285V1h326v766H1zm305-145-1-4v-1l-3-10v-1l-1-3a180 180 0 0 0-42-71q-15-17-35-27-21-11-43-13-20-2-40 1-33 4-58 27-16 13-28 29a181 181 0 0 0-35 89v427l2 9 7 33a171 171 0 0 0 48 75q14 12 30 22 17 9 37 12 34 6 65-6 23-9 41-25 16-15 28-34l15-27q12-24 14-53l1-7 1-3V468l-1-18v-25l1-16-1-38 1-25V159l-1-3v-1l-1-12z"/><path fill="#d4a343" d="M21 155q1-19 7-37a181 181 0 0 1 55-81q24-22 58-27 20-3 40-1 22 2 43 13 20 10 35 27a202 202 0 0 1 42 72l1 3v1l4 15 1 4 1 12-8-1q-4-1-4 4 1 6-5 8-4 0-4 5t-5 5q-3-23-19-26v26l1 3 16 11 2-4 5 7q-2 6 4 9l1 3-3 1-6-2-2 7-12-16q-3-6-8 0-5 28 18 48 7-15 3-31l6 2c0 4-4 9 4 10l-1 1-8 1 5 7-4 3c2 2 4 5 6 1q5-11 14-2l-5 2-5 1-3 2-4 11-1 6v15a34 34 0 0 1-8 24l-7 4-2-5 3-7 4-10 1-22-2-1v-1h-1v-1l-2-2-1 1c1 10-4 19-7 28l-2 8-4-1v10l-5 2q-2 5 3 5l-10 5v-1q4-4 2-8v-5l1-2 10-28 4-21-1-4q-4-5-6-11-6-11-6-24l2-19q-26-9-33-34l-5 6-8-1q-15-9-28-22l-6-8-2 10q-4 13-11 25-2 4-5 4l-5-3q-1-4 1-6 10-17 13-38-5 11-12 18-11 12-27 20l-7 2q-7 1-4-11c15-2 31-18 35-26l-3 1q-11 8-24 6-9-1-8 6v13l-5 11q-9 20-31 27c0 7 4 14 1 22l-1 5-5 20q-6 8-5 19 4 20 12 39l8 16 22 27-5 5-3-2q1-6-4-4l-13-14q-3-4-7-6l-8-2q-25-12-27-40 0-13-3-28-2-7-8-3v28l-1 5-1 61 1 2v79l4-4q12-15 31-15 18 0 33-11l1-1h1l1-1v-1l2-2 1-1q7-1 5-6l1-3 8-3q0 9-6 14l-2 4-3 5a57 57 0 0 1-38 16c-22 0-38 18-38 38l-1 12-1 54 1 2 1 1 2-2q9-2 3-11v-10q4-6-2-10v-7l8 2v2l-1 1v1q3 4 6 0h12q6 1 8-3 6 1 4-4h1c6 0 6 5 8 8l2 13q-4 5 1 8l1 1q2 5 1 7-3 7 2 10l1-7 1-37-2-3v-2c2-6-2-13 7-16l-2-2-6 1-1-2v-1q-6-7-13-3h-2q-4-2-4 2v1l-4 5-4 1-2-3q3-15 18-12 8-1 8-7-2-9 0-16 7 1 6-4h7v1l-4 8-3-3-1 1 2 4 3 4h2l-1 10h-1v7l9 1h1l1 1h1l2 2 6 7h-8l-8-2h-1v2l2 10q-1 8 6 5h1l2 1 1 1 1 4 5-4v6l-4 3v31c0 8-3 15 0 22h1l1-4h1l3 1v-37l1-2-1-7v-4l6-6 4 3 19-1 2 2c5 1 10-2 15 3l2-1 5-2c5 0 11-2 15 4q3-8 13-3 3-5 6 0l7-5 19-3q5 0 4-5l1-1v-2c2-7 2-7 8-4l-1 4q-7 4 0 6v20c-4 2-4 11-1 13h1l1 14h2l7-1-4-5v-1l-1-1v-2l2-6c2-4 2-12-1-16l1-2 3-2q4-3 0-5c-1-3 3-6-1-8v-2l9-8 3 5c1-8 6-3 9-5l-5-9q0-7 6-7v1l1 1 2 12q0 6 5 8v-2l7-1q1 6 5 5l-5 5h-1l-1-1h-4l-1-1h-1l-1-1h-5l-6-1-4-1-3 2-4 2v1l4 1q0 5 4 5h15l3 2v3l-6 2-14-3q-7-1-6 6v1l1 1v1l8 2h2c3 2 6 6 9 2l3 1q5 5 8-1l3-2 1 3 2 1 2 10 4 6c-6 5-5 5-2 10l3 5-10-8-6 5q2 7-3 15-3 3 0 8 6 8 10 18l8 19 2-3 7 5q-2 28-14 52l-15 27q-12 19-28 34-18 16-41 25a119 119 0 0 1-102-6q-17-9-30-22-21-18-34-43-8-15-14-32l-7-34-1-6-1-3 1-4zm39 138 1 1 2 1v1l2 1v1l2 1v1l2 1h2l-15-47-4 11q-1 9 2 18l1 1v2l1 1v1l3 3zm17 281-1 1-1 2-1 1-1 3h-1v2l3 1v1l3 1v1l2 1v1l7 8-6 1v-1q-5-9-12-3l3 15q6 22 17 40 11 16 26 27 11 8 24 12 19 7 37 4 20-4 37-15 6-4 10-10 16-14 26-33 8-20 11-40h-9v-8h2q4 1 4-3v-4l-6-13h-3v-1l-3-8-7-13v-2l-2-2v-1h-2c-6 0-2-5-3-8l1-1 2-4v-39l-1-3v-2l-2-3v3l-1 2h-2v5l-1 12-3-2v-14l-2-4-4 3v7l-2 4-2-4q1-4-5-4l-1 1-1 1h-1l-5-1q-5-3-7 3-2 5-5 0v-2q-3-3-4 1l-1 2-1 1-1 6-3 3 4 7-1 2q-5 2-5-3l2-15-2-4-6 2h-8v-1q-3-3-4 1h-2l-3 5-5-6v-3l-6-5v7h-5v-1q-3-3-5 1l-2 1-4 1-2-3v-2q-3-3-4 1v1l-3 13h3l-1 2 1 9-1 4 1 19v5l1 1 3-6h1l6-1 1 3v2l8 1 3-4 1 1v1l1 1 2 2q3 0 5 3l1-4-2-22 2-5 3 5v3l-1 15 2 3v1l4 2 1-3 1-1v-38q-1-7 6-6v44l2 4 5-3 2-11 4 2-1 5-2 1 3 2 1 1 1 2c6 3 4-4 6-6l5 4 8 1-2-8v-33q-1-6 5-4v42q3 4 4-2l1-1 2-11v-22l2-4 2 4v30l-1 8q3-2 4-1l2 5v1h-1l-4 1 1 2 5-1 3-1 1 1h1v1h4l1 1c1 7-5 1-7 4l4 2 7-1v2l-1 4 5 8-1 5-2 1q2 7-3 12h-4q1 7-6 7h-1c-3 3-13 3-16 1v-2c-3-6-3-6-9-2l-9-7-6 14-10 12 38-6h8l-1-3 1 1q2-3 5-3l6-2h3l1-1h1l1-1h1l4 2 3-5q4 7-4 10l-9 3q-9 6-19 4l-3 1-7 4-21 2c-15 4-29 1-44 0l-35-8 1-1-17-6q10-5 20 0l1 1v1l2-1 1 1 7 1 33 5-4-6q-7-7-12-15c-4-6-4-6-8-1l-4 3v1h-1l-2 2c-4 3-13 5-17 3l-8-2v-1l-6-14q-3-1-3-8v-7l1-1h1l8-6 6 3q3 3 5-2c4-2 0-4 1-7l-6 1-1-2 4-2 1-4-13-5-1 2-1 3-11 23v2l-1 2-1 1-1 3zm201-66-3-1-3-2-6-1 1-5-12 3-1 3h-1q-3 3 2 5l2 2 3 1q0 6 4 2h5l6 1h5l1-4v-1l-1-2zm-86 62 3 1v2l2 1 2-4-1-6 1-1 2-4q5-3 4-9l1-2h2l2-4-2-2-3 5h-2l-4-1-19 2-7 2 6 5 2 1v1q-1 6 5 4v1q0 5 5 7zm-90 5-1 2h1l2-2h1l2 2q4 3 5-3h1l1-1h1l1-7 3-6-2-2-4 5-1 1-1-1h-2v-1q-7-2-6 5v7zm-3-44 3-1h1q5-4-1-7l1-29c4-3 1-6-1-9v-2h-1v-1l1-1v-4h-2l-2 4h-2l1 27-2 17-2 4 1 3 4-1zm175-5-1-1v-1c-3-4-15-6-19-3l-1 1h-2l-3 7 10 1v1l7 3 2 2v1q3 3 5-1l1-3h1zM66 157l-1-7c-16 8-24 27-17 40l13-9 4-4-1-17 1-1zm69 410 1 2-1 4 7 3q3-4-1-8l1-1 2-2q7-6 14-4l1-6-1-4q1-5-4-3h-7l-1-5-2 1q-3 5-7 1h-4q-5 3-8-4l-5 8-8-9q1 6 5 10 3 4 5-1h1l1 2q0 5 5 4v1l1 1v1c0 3-2 9 5 8zm25 18 1 1v1h14l-1-8q0-8-6-11-8-2-11 6h-1l1 3-2 3-3-2h-1l4 8zm65-11c4-1 2-5 2-7 0-5-5-4-8-5q-3 0-7 3l-1-1h-2l3 9-3 8 2 1c-1-6 3-5 7-5l1 1q5 1 5-4m-195-4 1 17 1-1 1-2q4-19 16-35 3-4 0-8l-3-6c0-9 0-9-6-15-5 5-12 10-10 21zM223 63l-2-2q-18-13-39-17-20-3-39 2-11 3-21 8-14 8-26 18-16 14-25 33l-12 36 12-5v-8c3-7 2-14 6-20q6-13 18-19c6-2 13-2 16-9l6-6q25-21 55-19 13 2 25 8 13 7 22 18l7 6 12 4q20 14 19 39 2 11 12 9v-2q-8-25-21-48-9-14-25-26m-12 48c-5-16-21-26-38-20q2 10 10 18 3 5 8 7l19 5q5 1 3-4zM46 222l2 23c18-14 25-39 18-54l-11 11-6 8q-4 5-3 12m83-104q7 1 13-5l12-15q5-8-2-9l-18 3q-16 9-19 29zm110 17-14-4c7 33 13 40 28 43q3-13-3-27zM96 159q7-12 8-27c-21 0-32 23-28 44q14-6 20-17m42-86q-14 6-18 15h1l1-1q16-12 36-8h12q6-2 13-2l20 7 7 4-2-4q-9-10-23-14-23-7-47 3m107 43-3-7c-4-9-16-13-24-10l5 16q1 7 8 7l6 2 11 5zm-142 4 2-2 7-20c-18-3-29 12-30 29zm94 9-16-7q14 20 37 29l-3-19zM56 534l2 2 16-8 3-4-4-2-12 2q-8 1-5 10m13-41q6-2 3-6l-11 1-13 3q-6 1-2 7zm-9 13q-7 0-12 6 1 7 7 3l8-3 12-3c-1-6-4-5-8-5zm107 49-4 1 2 4 2 1zm-19 18q7-2 4-8zm84-6 1 7 1-1 1-6zm-1 9-5 5q6 1 5-5m-109-5v-3l-3 3 1 2zM88 434v3l1 1 2-6-1-1zm121 152 1-2-1-1zm8-2 1 2 2-2zm15-26-2-1-1 1zm-22-4-1-2-2 2zm-29-11-1 1h2zm-19 20-1 2h1zM87 444l1 2h1zm28 109h-2l1 1zm76 23h2zm-15-16v2zm-79 2h-2zM83 426h2zm175 72h-2zm-5 14q-1 0 0 0m37-271q0 1 0 0m-58 308q1 0 0 0m-111-70q0 1 0 0"/><path fill="#d5a13c" d="m281 212 2-7 6 2 3-1-1-3q-6-3-4-9-1-3-6-7l1-3 7 2q0-5-8-7l1-2q5 0 5-5t4-5q6-2 5-8 0-5 4-4l7 1 1 1v104l1 21-1 3v58l1 4-1 24 1 38-1 16v26l1 18v2l-1 7v93l-1 6h-3l1-6h-2l1 6-4 2v-47l-1-1v-1l-3-5c-3-5-4-5 2-10l1-2 1-2v-68l-2-5v-4q0-10-7-14l8-4v-2l1-4V243l-1-5 5-2q-9-9-14 2c-2 4-4 1-6-1l4-3-5-7 8-1 1-1c-8-1-4-6-4-10zm24 1-3-5-2 3 3 5zm-8 16q0-6-5-4zm3-1q-2 4 4 2zm-4 293 3 1v-2zm8 4 1-1h-2zm-2-331h2l-1-1zm-15-16h2z"/><path fill="#c7a565" d="m21 155-1 302V158z"/><path fill="#d4a343" d="m307 577 1-6v-93l1-7zm1-316"/><path fill="#cba05a" d="m309 347-1-4z"/><path fill="#d6a33b" d="M307 577v12l-7-5v-5l4-2z"/><path fill="#d4a343" d="M309 468"/><path fill="#d1a95f" d="M305 135"/><path fill="#c7a565" d="M21 584"/><path fill="#d1a95f" d="m306 140-1-4zm1 4-1-4zm-5-20-1-3z"/><path fill="currentColor" d="m110 334-23-26-8-16q-8-19-12-39-1-11 5-19l5-20 1-5c3-8-1-15-1-22q21-7 31-27l5-11q-3 12 4 11l7-2q17-8 27-20 7-7 12-18-3 21-13 38-2 2-1 6l5 3q3 0 5-4 7-12 11-25l2-10 6 8q12 13 28 22l8 1 5-6q7 25 33 34l-2 19q0 13 6 24 2 6 6 11l1 4-4 21-10 29-1 1-2 5-1 1v1l-1 1-2 3-1 1v1l-3 4-1 1-1 1-1 1-7 8-17 18-21 17-19 15q-6 6-12 0l-14-11-16-11-6-5-1-1-4-3-1-1-2-2-2-1zm53-90q-2-12-9-22-16-26-47-26l-4-1H88q-6 1-4 6 1 5 6 5l23 1q19 3 31 17 11 14 11 34v29q1 14 15 10 4-3 5-8-2-5-8-2l-3-1v-36zm27-10-7 13 2 5 4 2q4-3 7 0l12 2q21 1 35-12l5-6q7-9-3-12-14-6-29-6-17 0-26 14m-70-14h-19l-4 1-16 6q-5 1-3 6 9 16 26 21 11 3 24 1c5-1 9-4 13-1l5-5c1-6-4-11-7-16q-7-8-19-13m71 111 6-2q4-1 3-6 0-4-5-3l-6 1-4-2-8-7c-7-5-22-3-27 2q-5 8-15 6-5 1-6 4l4 6 7 1q6-1 11 5c7 7 20 7 27 0q6-5 13-5m-5-121q-2 3-1 5 1 8 10 1 14-11 32-10h13l6-5q1-4-5-5l-25-1q-17 3-30 15m70 384h4q-2 20-11 40-10 20-26 33-4 6-10 10-17 11-37 15-18 3-37-4-13-4-24-12-15-11-26-27-11-18-17-40-2-7-2-15l11 4 15 7q26 10 53 12 29 3 57-4 17-3 35-11z"/><path fill="currentColor" d="m299 513-1 2-4-6-1-3v-19l1-2v-1l1-2-1-12-2-3-1-1-5-2-6-2q-6 1-5-7l-3-8-1-1v-1q-10-10-23-7l2-6q3-9-5-14l-11-5q-20-7-42-8h-30l-43 2-31 8-6 4q-6 9-1 19h-9q-8-1-13 5-6 8-5 17l-14 5q-10 5-6 16l2 10v10l-3 11-2 2-1-1v-56l1-12c0-20 16-38 38-38q21-1 38-16l3-5 2-4q6-5 6-14l1-1v-10l38 27c9 6 8 4 16-1l1-1 1-1 2-1h1l1-1 1-1 1-1h1l4-3 19-14 6-4 1 18v1l1 2v1l1 1v1l1 1v1l1 1 1 1q7 10 16 14 12 7 26 9l21 5q5 1 8 6l9 16 1 4 1 17z"/><path fill="currentColor" d="M299 414v2l-5-5q-11-13-27-14-15 0-29-7-20-9-18-30 0-9 4-16 11-15 24-28l2-1q9-2 17-6l11-12 1-1q8-10 7-23v-15l1-6 4-11 3-2 5 1zm-198-31-1 1h-1l-1 1q-15 11-33 11-19 0-31 15l-4 4v-42l1-12-1-16v-72l1-5v-28q6-4 8 3 3 15 3 28 2 28 27 40l8 2q4 2 7 6l13 14 4 4 3 3 1 1v1l1 2 2 3q4 18-4 32l-1 1z"/><path fill="#d4a446" d="m88 415 31-8 43-2h30q22 1 42 8l11 5q8 5 5 14l-2 6q13-3 23 7-6 0-6 7-8-8-17-2-6 3-5 8l-1 5h-1c-6-3-6-3-8 3l1-9a166 166 0 0 1-65 7l-16 1-22-1-25-5 6-1-6-7 1-1 21 3 24 1 42-1 11-1 19-3c5-2 12-1 14-9l-15 4-17 3-27 1h-34l-28-3-24-5 1-10 11 3 62 6 28-2q22-1 41-8l5-3-5-3q-21-6-44-7l-6-1-5-2q2-7-4-7l-15 1-14-1-3 4-2-1q-1-5-5-2l-5 1-24 2 4 5q-4 2-6-1-2-4-5-2l-6 3z"/><path fill="currentColor" d="M224 63q14 11 24 26 14 23 21 48v2q-11 2-12-9 1-25-19-39l-12-4-7-6q-9-11-22-18l-25-8q-30-3-55 19l-6 6c-3 7-10 7-16 9q-12 6-18 19c-4 6-3 13-6 20v8l-12 5 12-36q9-19 25-33 12-10 26-18 10-5 21-8 20-5 39-2 21 4 39 17z"/><path fill="#d4a548" d="m278 297-11 12q-8 4-17 6l-2 1q-13 13-24 28-4 7-4 16-1 21 18 30 14 7 29 7 16 1 27 14l5 5-8 4q7 4 7 14h-1l-9-16q-3-4-8-6l-21-5q-14-2-26-9-9-4-16-14l-1-1-1-1v-1l-1-1v-1l-1-1v-1l-1-2v-1l-1-18-6 4-19 14-4 3h-1l-1 1-1 1-1 1h-1l-2 1-1 1-1 1c-8 5-7 7-16 1l-38-27v10h-1l-3-2 2-10 6-2v-6l6 5 16 11 14 11q6 6 12 0l19-15 21-17 17-18 7-8 3 7h1l1-4 4-2q4-6 11-5l3-1q6-1 10-7l3-3z"/><path fill="currentColor" d="m186 415 6 1q23 1 44 7l5 3-5 3q-19 7-41 8l-28 2-29-2-33-4-11-3h-3l-2-4 2-2 11-4h1l11-2h3l2-1 24-2zm-3 50q26 0 51-8l-1 10v2l-1 1-7 3-28 5-34 3-8-1h-11l-21-3-16-3h-1l-2-1h-1l-6-5-1-3-1-7v-2h2l7 3h2l25 5 22 1zm-31-11-24-1-21-3-3-1h-1l-1-1h-1l-9-3v-5h1l24 5 28 3h34l27-1 17-3 15-4c-2 8-9 7-14 9l-19 3-11 1-13 1zm147 76v2l-1 55-8-19q-4-10-10-18-3-5 0-8 5-8 3-15l6-5zm-88-419 2 6q2 5-3 4l-19-5q-5-2-8-7-8-7-10-18c17-6 33 4 38 20M31 540c-3-10 4-15 9-20 6 6 6 6 6 15l3 6q3 4 0 8a91 91 0 0 0-17 37l-1 1-1-18zm15-318q-1-8 3-12l6-8 11-11c7 15 0 40-18 54zm235-10q5 15-2 31-23-19-18-48 5-6 8 0zm-153-94-13 3q4-20 19-29l18-3q7 2 2 9l-12 15q-5 6-14 5m111 18q7 5 11 11 6 13 3 27c-15-3-21-10-28-43zM96 160q-6 10-20 16c-4-21 7-44 28-44q-1 15-8 28m43-87q23-11 46-3 14 4 23 14l2 4-7-4-20-7q-7 0-13 2h-12q-20-4-36 8l-1 1h-1q4-9 19-15"/><path fill="#d4a446" d="M34 481q-4-11 6-16l14-5q0-9 5-17 5-5 13-5h9q-5-10 1-19-2 7 0 16 0 6-8 7-15-3-18 12l2 3 4-1 3-5-2 8h3q12 0 14 12v10c-2-3-2-8-8-8q-2-5-6-3l-16 3-8 3-8-2z"/><path fill="#d4a346" d="m256 594-15 8q-17 8-35 11a185 185 0 0 1-125-15l6-1-6-9 5 2 8 4 2-2 8 2c4 2 13 0 17-3l3-2q-6 8-14 8l-3 2q-9-5-19 0l17 6-1 1 35 8c15 1 29 4 44 0l21-2 7-4 3-1q10 2 19-4l9-3q8-4 4-10l-3 5-5-2 4-3 9-4v8z"/><path fill="currentColor" d="m242 463 1-5q-1-5 5-8 9-6 17 2l1 7h-6q-9 1-11 10v2l1 8-4 7v2q1 9-2 17l1 5v2l1 1v1l-3 6-2-16-1-3 1-8zM80 481v-10q-2-12-14-12h-3l3-9 4-2h2l13 3v1l1 2 1 17v2l1 10v30l-1 7q-5-3-2-10 1-2-1-7l-1-1-1-8c1-5 3-10-2-13m201-297v3l-1 4-16-11-1-3v-26q16 3 19 26l-1 2zm-36-68 3 13-11-5-6-2q-7 0-8-7l-5-16c8-3 20 1 24 10zm-142 4-21 7c1-17 12-32 30-29l-7 20zm-38 40v1l1 17-4 3-13 9c-7-13 1-32 18-40l-1 7zm42 439 3-2q9 0 14-8l1-1 3-3c4-5 4-5 8 1q5 8 12 15l4 6-34-5-6-2h-2l-1-1zm105 2-37 7 10-12 6-14 10 7q10 9 22 8l-2 2-1 1zm39-15-13 7-2 1-2 1h-2l-6 1 3-2c7-2 15-14 13-22v-6l-4-12v-1l-4-6h-1l-4-1h-2v-1l-4-1v-1l12-4h1l1 1 1 3v1l10 22 9 17zm-155 6-2 2-8-4-6-2-2-2-3-1-1-1-2-1v-1l1-1v-1l1-2 1-1 1-2 1-1 1-1v-1l1-2 1-1 1-2 1-2 10-24 1-2 13 5q-15 2-18 17l-1 1v2q-4 17 9 28m17-443v-13q-1-7 8-6 13 2 24-6l3-1c-4 8-20 24-35 26m152 132c2-9 7-18 6-28l2-1 1 2v1h1l1 1 1 1-1 22-4 10-5 7h-1l-1 1-8 6 1-5 4-9zm-68-152 18 3 3 19q-23-9-37-29z"/><path fill="#d4a346" d="M138 489h5v-7l6 6-4 2-1 6v40l-3 4-7-2q5-1 3-6v-30z"/><path fill="currentColor" d="M55 285v-1l-1-1q-3-9-2-18l4-11 15 47-2-1-2-1h-1l-1-1-1-1-1-1-1-1-1-1-1-1-1-1-1-1-2-4zm152 263-1 1-1 1q-7 5-6 13l-1 2-1 7h-2v-1l-3-1-1-1-5-8-5-5-6-6 16-1 13-2h1zm-78 8v-1l-5-5-2-1 3-2 31 4q-11 5-15 16v2l-2 4-1-5-3-2-5-9z"/><path fill="#d4a346" d="m221 537-4 2 1-8v-30l-2-4-2 4v22l-2 11v-42l-2-5q4 0 4 4l2 4 2-4v-7l4-3 2 4v15l1 30v7zm-2-46v43h2l1-5v-39l-2-4zm-61 48-2-3 1-15v-3l-3-5-2 5 2 22-1 4-5-4v-1l2-3v-46l4 6q2-4 4-4zm-6-33v4h2l2-6-1-1z"/><path fill="currentColor" d="M189 490v43q0 6-4 7l-1-1v-48l1-1zm-39 0-2 49h-2l-1-1v-48zm8 49v-48h5v48z"/><path fill="#d3a33f" d="M266 296h3l2 5-3 3q-4 6-10 7l-3 1q-7 0-11 5l-4 2-4-3v-1l1-1 1-1h2l2 1-1-2v-4l1-1 3-4v-1l1-1h2q2 4-2 8v1l10-5 1-2z"/><path fill="#d4a346" d="m107 475 16 2 21 3-19 1-4-3-6 6v4l1 7-1 2v37l-3-1v-42q3-6-3-7l4-3v-6l-5 4zm37 5h11l8 1 34-3 28-5 7-3q1 5-4 5l-19 3-7 5q-3-5-6 0-10-4-13 3c-4-6-10-4-15-4l-5 2-2 1c-5-5-10-2-15-3z"/><path fill="#d5a23d" d="m115 365 3 2v1l-8 3v-19l-2-4v-2l-2-1-1-2v-1l-1-1v-1l5-5h1l-1 6 4-2 2 1v2l3 4 2 4h-2l-1 5zl-1 1z"/><path fill="#d4a346" d="M141 567q4-11 15-16l-31-4-3 2h-1l4-8q3 7 8 4h4q4 4 7-1l2-1 1 5h7q5-2 4 3l1 4-1 6q-7-2-14 4z"/><path fill="currentColor" d="m95 525 2-17v-27h2l2 1v48l-2 1-2-1z"/><path fill="#d4a346" d="M185 540q4-1 4-7v-42q3 5 5 0 2-6 7-2l-5 2v47l-5-3c-2 2 0 9-6 5m5-13v5l4-7v-23l-2-4-2 4z"/><path fill="currentColor" d="m138 489-1 13v30q2 5-4 6v-49zm118 22-2-1v-5l18 1 4 1 2 1 2 1 1 2v2l-2 2-1 1h-3l-15-4h-1zm-99 63 6-3q5-1 8 3 3 7-2 11-3 5-8 2l-1-1-4-5v-3zm98-83v-1q3-3 5-3l23 5h1q3 8-6 6l-3-1-11-2-8-2zm-134 11v-15h4v48l-4 1zm144 31-6-3q-7-1-6-8h1l20 3 1 2-1 6v1l-1 2h-5zm-55-46 2 5v43l-1 1-3-1v-47zm49-16 3-2 4 1 6 1 5 1h2l1 1h4l1 1h1l1 1-1 4-1 1h-8l-10-2-8-3zm-217 5 8-3 16-3q4-2 5 3v1l-4 3-19 3h-7v-1l1-1z"/><path fill="#d4a346" d="m172 491 5-2 2 4-2 15q0 5 6 4v17l-4-1-3 11v-48z"/><path fill="currentColor" d="M56 534q-3-9 5-10l12-2 4 2-3 4-16 8z"/><path fill="#cea858" d="M299 414V240l-5-1 5-1 1 5z"/><path fill="#d4a346" d="M163 539v-47l8-1h1v49l4-1-4 3-2-4v-44q-7-1-6 6zm78 33c3 8-5 20-12 22l-3 2-5 3 2-2q-13 1-22-8c5-4 5-4 8 2v2c3 2 13 2 16-1h1q7 0 6-7h4q5-5 3-12z"/><path fill="currentColor" d="m69 493-23 5q-4-6 2-7l13-3 11-1q3 5-3 6m-8 13 6-2c4 0 7-1 8 5l-12 3-8 3q-6 4-7-3 5-6 13-6m48-22q6 1 3 7v41l-1 1-2 1zm124 32 1 10-3 4h-1v-47l1-1h2z"/><path fill="#d3a240" d="m225 530-1-30 4 1v2l-1 1 1 1 1 19-1 1 1 1v4l-2 1z"/><path fill="#d4a446" d="M278 498q9 2 6-6l1-4q3-7 9-6v3l-1 2q-4 3 0 7l-1 5-2-1-1-3-3 2q-3 6-8 1"/><path fill="currentColor" d="m111 564 2 9-1 1-1 1-5 1-4-2v-7l6-4h1zm108 13-2-3c-2-2-1-9 2-9q4-1 7 2v7z"/><path fill="#d4a346" d="M88 561q3-14 18-17l-12-7 13 5-1 4-4 3c-4 1-8 0-6 6z"/><path fill="#d3a23e" d="M294 482q-6-1-9 6l-1 4-1-1-2-6v-3l4-2 1-1 1-4-1-1 5-5v-2h1l2 3v5l-3 4 1 1 2-3 1 5z"/><path fill="#d4a346" d="M225 574v-7q-3-3-7-2c-3 0-4 7-2 9l2 3c-3 0-7-1-6 5l-2-1 3-8-3-9h2l1 1q4-3 7-3c3 1 8 0 8 5 0 2 2 6-3 7m-64 12q5 3 8-2 5-4 2-11-3-4-8-3l-6 3q3-7 11-5 6 3 6 11l1 8zm40-97h6v5q-6 0-5 5v33l2 8-8-2q6 0 5-4zm3 58-13 2-16 1 6 6-2-1-6-5 7-2 19-2z"/><path fill="#d4a446" d="m281 485 2 6-23-4q-2 0-5 3-1-7 6-6l14 3z"/><path fill="#d4a346" d="m125 535 2-44 5-1v1q-7 5-6 12v20q-1 8 6 6v4z"/><path fill="#d4a446" d="M249 469q2-10 11-10h6l-1-7 5 9c-3 2-8-3-9 5l-3-5z"/><path fill="#d4a346" d="M96 592q-13-11-9-28v5q0 7 3 8z"/><path fill="#d7a33b" d="M96 555c-2-6 2-5 6-6l2 1 3 6q0 5-4 2z"/><path fill="#cda765" d="M30 274"/><path fill="#d4a346" d="m227 531 2-1h1l1 1c1 3-3 8 4 8l-12 4v-3q8 0 4-7z"/><path fill="#cda455" d="m298 587 1-55h1v52z"/><path fill="#c8a465" d="M30 457"/><path fill="#d4a446" d="m272 447 3 8q-1 8 5 7l6 2-7 1v2q-6-2-5-8z"/><path fill="#c5a264" d="M230 529v-6l-1-19v-21h2z"/><path fill="#d4a446" d="m273 525-20-3 1-1c4-3 16-1 19 4"/><path fill="#d4a548" d="m108 348 2 4v19l-1 3q2 5-5 6 8-14 4-32"/><path fill="#d4a446" d="m245 510-1-5q3-8 2-17c3 4 3 12 1 16z"/><path fill="#d4a346" d="m257 583-9-17h3l6 13z"/><path fill="#cea75e" d="m101 530 1-47v48z"/><path fill="#cba558" d="M145 490"/><path fill="#cda55a" d="M132 533v-4z"/><path fill="#c7a466" d="M183 529v-21 30z"/><path fill="#d6a245" d="m241 493-1 8v5h-1c-3-2-3-11 1-13z"/><path fill="#c5a66a" d="M207 494v-5h1v47h-1z"/><path fill="#d4a346" d="m248 566-3-9z"/><path fill="#c4a466" d="M88 513v-30l-1-10 2 3z"/><path fill="#d4a446" d="m87 471-1-16 6-2 2 2c-9 3-5 10-7 16m172 4 8 3 10 2h-14q-4 0-4-5"/><path fill="#d4a346" d="M121 549q-1 5-4 1-4-4-5-10z"/><path fill="#d4a446" d="m266 504-12 1 1-3 12-3zM48 480l19-3q-2 4-8 3z"/><path fill="#d4a346" d="M199 563q-1-8 6-13 1 6-4 9zm-43 17 4 5-5 1-4-8h1z"/><path fill="#d4a446" d="m102 420-11 4 4-8z"/><path fill="#d4a346" d="m234 548 4 5-7 1-4-2c2-3 8 3 7-4m-96 20 1 5 2-4q4 3 1 7l-7-3 1-5z"/><path fill="#d5a33c" d="M227 531v2q4 7-4 7v2l-2-5h4v-7z"/><path fill="#d4a346" d="m107 556-3-6 5-1c-1 3 3 5-2 7"/><path fill="#d4a446" d="m260 513 15 3-6-1h-5q-4 4-4-2"/><path fill="#d4a346" d="m81 598-11-4q5-6 11 4"/><path fill="#cca45e" d="M241 493v-26l1-4h1z"/><path fill="#d4a346" d="M109 515v19l2-1-1 4h-1c-3-7 0-14 0-22m124 1v-32l1 3z"/><path fill="#c3a763" d="M31 540"/><path fill="#d4a346" d="M183 499v9l-4-6z"/><path fill="#d4a446" d="m85 451-13-3q7-4 13 3"/><path fill="#d4a346" d="M167 555v6l-2-1-2-4z"/><path fill="#d4a446" d="m33 512 3-11q6 9-3 11m219 10q-1 7 6 8l-10-1z"/><path fill="#cea34f" d="m240 506 1-2 2 16h-2z"/><path fill="#d4a346" d="m238 554 4 12-5-7z"/><path fill="#d5a348" d="m130 557 5 9c-7 1-5-5-5-9"/><path fill="#d4a548" d="m257 303-1 2q-5 0-3-5l5-2z"/><path fill="#cca35b" d="m292 499 1-5q-4-3 0-7z"/><path fill="#d4a346" d="m148 572 4-7q3 6-4 7m85-5h2l-1 6-1 1z"/><path fill="#d4a548" d="m262 289-4 9v-10z"/><path fill="#d4a446" d="m247 486 3-7q5 2 0 5z"/><path fill="#caa558" d="m276 279 1-22z"/><path fill="#d4a346" d="M231 576q1 6-5 5z"/><path fill="#d4a446" d="m243 520 3-6 4 5z"/><path fill="#cda95c" d="m114 573-2-9 2-1 2 3z"/><path fill="#d4a346" d="M121 487v13l-3 1z"/><path fill="#d4a34a" d="M195 572h2l1-7 1 5-2 4z"/><path fill="#d4a346" d="m109 563-6 4q-1-7 6-4"/><path fill="#d4a446" d="m36 491-2-10q6 4 2 10"/><path fill="#d4a346" d="M102 494v-8c2 2 5 5 0 8"/><path fill="#d4a446" d="m266 495 9 2c-3 4-6 0-9-2"/><path fill="#d4a346" d="m116 566-2-3 3-5 2 2z"/><path fill="#d4a446" d="M80 481c5 3 3 8 2 13z"/><path fill="#d4a346" d="m181 556 5 5c-3 0-6 1-5-5m-60-41"/><path fill="#d4a446" d="M291 467v2q-4 1-5-5zM92 445l9 3-9-1z"/><path fill="#d4a346" d="m97 468 6 5q-7 3-6-5"/><path fill="#d4a548" d="M269 296h-2l5-7z"/><path fill="#d5a347" d="m95 525 2 5v1l-3 1-1-3z"/><path fill="#d4a346" d="m212 601 8-1 1 2zm-90-29-2 1-1-2 3-3z"/><path fill="#d4a446" d="M240 467v6q-7-2 0-6"/><path fill="#caa35a" d="M66 178"/><path fill="#d4a446" d="m89 434 1-3 1 1-2 6-1-1z"/><path fill="#d4a34a" d="m186 561 5 8q-6-2-5-8"/><path fill="#d4a346" d="M102 530v-6q6 2 0 6"/><path fill="#d4a446" d="m82 419 6-4q1 5-6 4"/><path fill="#d4a346" d="m121 536 4-1-3 6-1-1z"/><path fill="#d4a446" d="m250 479-1-8c4 2 0 5 1 8"/><path fill="#d4a346" d="m207 548-2-1 3-5 2 2zm-83 2 5 5q-6 1-5-5"/><path fill="#d4a446" d="m285 480-4 2-3-2z"/><path fill="#cba759" d="M30 362"/><path fill="#d4a446" d="m82 494 1 8q-5-3-1-8"/><path fill="#cba759" d="M30 387v13z"/><path fill="#d4a446" d="m91 424-2 2-2-4 1-1z"/><path fill="#d4a548" d="m101 338-4-4q5-2 4 4"/><path fill="#d4a446" d="m95 458 1 7z"/><path fill="#d5a33c" d="m223 546-4 1-1-2 5-1z"/><path fill="#d4a446" d="M259 471v4l-4-1v-1z"/><path fill="#d4a548" d="m264 281-2 8z"/><path fill="#d4a346" d="m219 577 6-3q0 5-6 3"/><path fill="#d4a446" d="m104 458-7-2z"/><path fill="#d4a346" d="M158 539h5l-1 3zm16 30 2-3 1 2z"/><path fill="#caa35a" d="m66 157 1-7z"/><path fill="#cba759" d="M30 376"/><path fill="#d4a346" d="m99 481 1-4h2l-1 4z"/><path fill="#d4a446" d="m256 493 8 2z"/><path fill="#cda95c" d="m107 577 5-2q-1 5-5 2"/><path fill="#d4a346" d="M109 500v8z"/><path fill="#d4a446" d="m258 530 6 3z"/><path fill="#d4a346" d="m252 586 5-3q0 4-5 3"/><path fill="#d4a446" d="M267 536h5q-2 5-5 0m10-65h-5zm-210 6 4-3q2 4-4 3"/><path fill="#d4a346" d="M138 489h-5q2-4 5 0"/><path fill="#d4a446" d="m70 448-4 2q0-4 4-2"/><path fill="#d4a346" d="M121 502"/><path fill="#d4a446" d="M274 533v-6z"/><path fill="#d4a346" d="M209 586v-3l1 1z"/><path fill="#d4a446" d="M36 500"/><path fill="#d4a346" d="m112 601 6 1z"/><path fill="#d4a446" d="M254 505v5q-4-2 0-5M41 480h6q-3 4-6 0"/><path fill="#d4a346" d="M228 484v4z"/><path fill="#d4a446" d="m272 506-4-1z"/><path fill="#d4a346" d="M218 584h2l-2 2zm14-26h-3l1-1z"/><path fill="#cba558" d="M149 490h-4l4-2z"/><path fill="#d4a346" d="M209 554h-2l2-2zm-20-64h-4q1-4 4 0m-64-3h-4q1-5 4 0m58 48v3l-3-2zm24 1h3q-1 5-4 0m-25 7 1 1h-2zm-18 20-1 2h-1zm0-72h-4q1-4 4 0"/><path fill="#d4a446" d="m87 444 2 2h-1zm179 26-4-1z"/><path fill="#d4a548" d="M248 301h-2l2-5zm-144 39-3-3z"/><path fill="#d4a346" d="M101 530h-3z"/><path fill="#d3a442" d="M246 310h-2z"/><path fill="#d4a346" d="m103 575-1 2h-1zm126-29 4 1zm-114 7-1 1-1-1zm108-7v-2l4 1z"/><path fill="#caa65d" d="m56 287 2 4z"/><path fill="#d4a346" d="M103 567v6zm54 7-1 3z"/><path fill="#d4a34a" d="m192 570 3 1z"/><path fill="#d4a346" d="M109 509v5z"/><path fill="#d4a446" d="m265 534 2 2zm14-19 2-2z"/><path fill="#d4a346" d="M233 482h-2v-3z"/><path fill="#d5a348" d="M138 568h-2l-1-2z"/><path fill="#d0ac63" d="m78 586 2 2z"/><path fill="#d4a34a" d="M191 576h2z"/><path fill="#d4a346" d="M176 560v2zm-79 2h-2z"/><path fill="#d4a446" d="m281 511-1-2zm-177-62 3 1-1 1zm-21-23h2z"/><path fill="#d4a346" d="M132 484"/><path fill="#d4a446" d="M258 498h-2z"/><path fill="#caa558" d="m274 254-1-2z"/><path fill="#d4a346" d="m238 543-1-3z"/><path fill="#d4a446" d="M275 516h4z"/><path fill="#caa35a" d="m65 160 1-3z"/><path fill="#d4a548" d="m101 383 2-2z"/><path fill="#d0ac63" d="m75 585 3 1z"/><path fill="#d4a346" d="m109 599-1 1z"/><path fill="#d4a446" d="m31 514 2-2zm225-3 3 1z"/><path fill="#cca35b" d="m293 506 1 3z"/><path fill="#d4a446" d="m86 454-1-2z"/><path fill="#d0ac63" d="m72 583 2 1z"/><path fill="#caa65d" d="m67 299 2 1z"/><path fill="#cea75e" d="M99 481h2v1z"/><path fill="#d0ac63" d="m74 578-1 2z"/><path fill="#d4a346" d="m104 473 2 1z"/><path fill="#d4a446" d="m280 509-2-1z"/><path fill="#d0ac63" d="m76 575-1 2z"/><path fill="#d4a346" d="m97 531 2 1z"/><path fill="#d5a13c" d="M285 222"/><path fill="#d0ac63" d="m81 567-1 2zm-2 3-1 2zm3-5-1 2z"/><path fill="#caa65d" d="m55 285 1 2z"/><path fill="#d4a446" d="m274 527-1-2zm4-19-2-1zM92 430h2z"/><path fill="#caa558" d="m277 257-1-1z"/><path fill="#d4a346" d="m234 595 2-1zM93 539l-1 2z"/><path fill="#d4a446" d="m272 536 1-2z"/><path fill="#d4a346" d="m236 594 2-1z"/><path fill="#cba558" d="M146 539h2v1z"/><path fill="#d4a446" d="M246 513"/><path fill="#cda95c" d="m113 574 1-1z"/><path fill="#d0ac63" d="m78 573-1 1z"/><path fill="#d4a548" d="M98 386"/><path fill="#d4a446" d="M253 512q-1 0 0 0"/><path fill="#cba759" d="M30 386"/><path fill="#d4a346" d="m103 574 1 1z"/><path fill="#d4a34a" d="m191 569 1 1z"/><path fill="#d4a346" d="M232 595"/><path fill="#d0ac63" d="m80 569-1 1zm-7 12-1 1z"/><path fill="#d4a548" d="M103 381"/><path fill="#d4a446" d="M271 446"/><path fill="#d0ac63" d="m77 574-1 1z"/><path fill="#d4a346" d="M160 585"/><path fill="#caa558" d="M275 255"/><path fill="#d4a346" d="m125 588-1 1z"/><path fill="#d4a548" d="m100 385 1-1z"/><path fill="#caa65d" d="M54 283"/><path fill="#d4a346" d="m231 482-1 1z"/><path fill="#d5a13c" d="M290 241q0 1 0 0"/><path fill="#d4a346" d="M228 546"/><path fill="#caa65d" d="m65 298 1 1z"/><path fill="#d4a346" d="M233 484v-1z"/><path fill="#d4a446" d="M255 491"/><path fill="#d4a346" d="M232 549q1 0 0 0"/><path fill="#d4a548" d="m279 296-1 1z"/><path fill="#caa65d" d="m63 296 1 1z"/><path fill="#d4a548" d="m248 296 1-1z"/><path fill="#d4a346" d="M236 539"/><path fill="#cba558" d="m145 538 1 1z"/><path fill="#caa65d" d="m61 294 1 1zm-1-1 1 1zm-1-1 1 1z"/><path fill="#d4a346" d="m185 490-1 1z"/><path fill="#d4a446" d="M95 416h1zm-3 27v1zm10 5 1 1z"/><path fill="#cda95c" d="m111 564-1-1z"/><path fill="#c5a264" d="M231 531h1z"/><path fill="#d4a446" d="M96 456"/><path fill="#d4a346" d="m87 562 1-1z"/><path fill="#d4a446" d="M83 502"/><path fill="#d4a346" d="m232 470 1-1z"/><path fill="#d4a446" d="M279 472"/><path fill="#d5a348" d="M129 556"/><path fill="#d4a446" d="m280 473-1-1zm-238 5-1 1z"/><path fill="#d4a346" d="M121 479q0 1 0 0"/><path fill="#cba355" d="M299 513v-58l-1-17 2 5v68z"/><path fill="#d4a343" d="m282 184-1-5q8 2 8 7zm23 29-2 3-3-5 2-3zm-8 16-5-4q5-2 5 4m3-1 4 2q-6 2-4-2m4 349-1-6h2zm-8-56 3-1v2zm8 4-1-1h2zm-2-331 1-1 1 1zm-15-16h2z"/><path fill="#cba355" d="M297 434v4z"/><path fill="#d4a343" d="M300 532"/><path fill="#d3a446" d="M164 287h3q6-3 8 2-1 5-5 8-14 4-15-10v-29q1-20-11-34t-31-17l-23-1q-5 0-6-5-2-5 4-6h15l4 1q31-1 47 26 8 9 9 23v37z"/><path fill="#d4a548" d="M191 234q8-14 25-14 14 0 29 6 11 3 3 12l-5 6q-14 14-35 12l-12-2q-3-3-7 0l-4-2-2-5zm11 10q20 5 35-10l-12-4q-14-3-25 9c-1 1-4 4 2 5m-82-24q12 5 19 13c3 5 8 10 7 16l-5 5c-4-3-8 0-13 1q-13 2-24-1-17-4-26-21-2-5 3-6l16-6 4-1zm-18 22 6 2c5 3 20 1 24-3-11-12-27-15-39-6z"/><path fill="#d3a449" d="M191 331q-7 0-13 5c-7 7-20 7-27 0q-5-6-11-5l-7-1-4-6q2-3 6-4 10 2 15-6c5-5 20-7 27-2l8 7 4 2 6-1q5-1 5 3 2 5-3 6zm-27 0 12-6c-7-7-17-6-21 1z"/><path fill="#d4a648" d="M186 210q13-12 30-15l25 1q5 1 5 5l-6 5h-13q-18-1-32 10-9 7-10-1-1-2 1-5"/><path fill="#ccae71" d="m164 286-1-4v-37l1 5z"/><path fill="#d4a343" d="m113 339-4 2 1-6zm5 7-3-4h2l1 1z"/><path fill="#d4a548" d="M118 346v-3l4 3zm123-37v3l-1 1h-2zm-124 33h-2v-2zm5 4 1 1zm114-31h-1zm9-12"/><path fill="#d1a95e" d="m211 356 1 18z"/><path fill="#cca35b" d="m295 482-1-5v-7z"/><path fill="#d1a55d" d="m182 377 4-3z"/><path fill="#cca35b" d="m294 470-2-3z"/><path fill="#d1a55d" d="m175 381 2-1z"/><path fill="#cca35b" d="m294 482-1 2z"/><path fill="#d1a95e" d="m212 375 1 2z"/><path fill="#cca35b" d="m293 487 1-2z"/><path fill="#d1a55d" d="M179 379"/><path fill="#d1a95e" d="M213 378"/><path fill="#d1a55d" d="M178 380"/><path fill="#d4a343" d="M118 368h1z"/><path fill="#d1a95e" d="M214 380"/><path fill="#d1a55d" d="M173 383"/><path fill="#d1a95e" d="M216 383"/><path fill="#cca35b" d="M291 467"/><path fill="#d4a548" d="m108 347-2-3zm-3-4 1 2zm-1-2"/><path fill="#d4a343" d="m95 416 6-3q3-2 5 2t6 1l-4-5 24-2 5-1q4-3 5 2l2 1 3-4 14 1 15-1q6 0 4 7l-6 1h-42l-4 2-10 1-2 1h-3l-11 2h-1z"/><path fill="#cfaa61" d="M143 414h32l6-1 5 2z"/><path fill="#d5b76c" d="M183 465h-30l16-1z"/><path fill="#ffe6c0" d="M152 454"/><path fill="#d4a343" d="M122 346v6l-6 2 1-5h2l-2-4z"/><path fill="#d3a442" d="m235 316 4 3-1 4h-1zm20-4 3-1z"/><path fill="#d4a446" d="m143 414-14 1 4-2zm-26 4 2-1z"/><path fill="#d4a548" d="M266 296"/><path fill="currentColor" d="m219 490 1-4 2 4v39l-1 5h-2z"/><path fill="#d4a343" d="m152 506 3-3 1 1-2 6h-2z"/><path fill="#d3a442" d="m240 313 1 2z"/><path fill="#d4a548" d="m115 365-1 1z"/><path fill="#d4a343" d="M108 347"/><path fill="currentColor" d="M201 489v45q1 4-5 4v-47z"/><path fill="#d4a343" d="M190 527v-25l2-4 2 4v23l-4 7z"/><path fill="#d4a446" d="m287 475-1 4z"/><path fill="currentColor" d="m176 538-4 2v-48l4-1z"/><path fill="#d4a346" d="M229 524v2l-1-1z"/><path fill="#d4a343" d="M228 503v2l-1-1z"/><path fill="#d4a446" d="M294 475v2l-2 3-1-1z"/><path fill="#d4a343" d="M132 491v38q-7 2-6-6v-20q-2-8 6-12"/><path fill="currentColor" d="M201 244c-5-1-2-4-1-5q11-12 25-9l12 4a35 35 0 0 1-36 10m-100-2-8-7c12-9 28-6 39 6-4 4-19 6-24 3zm62 89-8-5c4-7 14-8 21-1z"/></svg>