<?xml version="1.0" standalone="no"?>
<!DOCTYPE svg PUBLIC "-//W3C//DTD SVG 20010904//EN"
 "http://www.w3.org/TR/2001/REC-SVG-20010904/DTD/svg10.dtd">
<svg version="1.0" xmlns="http://www.w3.org/2000/svg"
 width="180.000000pt" height="180.000000pt" viewBox="0 0 180.000000 180.000000"
 preserveAspectRatio="xMidYMid meet">

<g transform="translate(0.000000,180.000000) scale(0.100000,-0.100000)"
fill="#000000" stroke="none">
<path d="M0 900 l0 -900 900 0 900 0 0 900 0 900 -900 0 -900 0 0 -900z m983
776 c60 -18 117 -64 156 -125 62 -96 62 -101 59 -644 l-3 -492 -26 -55 c-109
-232 -362 -262 -501 -59 -66 95 -68 117 -68 629 0 502 1 517 61 615 72 120
194 169 322 131z"/>
<path d="M839 1617 c-48 -18 -73 -37 -109 -82 -30 -38 -58 -110 -47 -121 10
-10 27 6 27 26 0 32 22 69 44 76 12 4 36 19 53 35 60 52 127 50 201 -4 70 -51
82 -65 82 -97 0 -28 22 -51 36 -38 8 9 -31 98 -60 134 -52 65 -155 97 -227 71z"/>
<path d="M855 1567 c-17 -8 -37 -22 -45 -32 -14 -17 -13 -18 5 -10 32 14 141
18 164 5 30 -15 27 6 -3 25 -34 23 -86 27 -121 12z"/>
<path d="M820 1510 c-11 -11 -20 -29 -20 -41 0 -16 4 -19 23 -14 27 8 69 53
62 66 -10 16 -44 10 -65 -11z"/>
<path d="M915 1521 c-9 -15 37 -60 69 -67 26 -6 28 -5 21 17 -13 44 -73 77
-90 50z"/>
<path d="M740 1488 c-29 -32 -26 -50 8 -42 33 8 29 4 37 37 9 34 -15 37 -45 5z"/>
<path d="M1015 1488 c9 -29 14 -34 43 -43 15 -4 22 -2 22 7 0 24 -30 58 -51
58 -16 0 -19 -4 -14 -22z"/>
<path d="M849 1449 c-8 -5 -24 -9 -35 -9 -17 0 -23 -8 -28 -35 -5 -23 -19 -44
-41 -62 -29 -23 -35 -35 -35 -66 0 -21 -5 -48 -11 -59 -18 -34 5 -115 49 -172
20 -27 63 -69 94 -94 66 -51 61 -52 156 33 98 88 117 144 97 281 -6 41 -14 57
-36 73 -15 12 -33 38 -40 59 -9 31 -18 40 -47 49 -20 6 -38 10 -40 9 -3 -4 34
-39 63 -61 11 -8 15 -15 8 -15 -7 0 -28 14 -46 30 -19 17 -37 30 -40 30 -3 0
-8 -13 -12 -30 -4 -16 -11 -33 -17 -36 -6 -4 -8 1 -5 12 18 60 18 70 -1 71
-10 1 -25 -3 -33 -8z m3 -40 c-30 -27 -70 -41 -57 -19 3 6 12 10 19 10 7 0 23
11 36 25 13 14 26 22 29 19 3 -3 -9 -19 -27 -35z m-6 -134 c31 -21 54 -76 54
-128 0 -27 5 -47 13 -50 7 -3 5 -6 -5 -6 -15 -1 -18 8 -18 44 0 50 -18 103
-43 123 -9 8 -37 17 -64 22 l-48 8 45 1 c26 0 55 -5 66 -14z m184 5 c-25 -4
-54 -10 -65 -14 -20 -8 -20 -7 -1 8 13 10 37 15 65 15 l46 -2 -45 -7z m-190
-60 c31 -31 24 -40 -28 -40 -38 0 -53 5 -71 24 -21 23 -22 25 -4 29 44 11 84
6 103 -13z m230 10 c26 -18 -24 -50 -76 -50 -48 0 -55 11 -27 42 18 20 78 24
103 8z m-128 -192 l25 -12 -24 -13 c-30 -15 -55 -17 -68 -4 -6 5 -19 11 -30
14 -18 4 -18 5 2 6 12 0 25 6 28 11 8 13 35 13 67 -2z"/>
<path d="M754 1219 c-9 -15 14 -29 49 -29 16 0 27 5 27 14 0 24 -62 37 -76 15z"/>
<path d="M982 1218 c-19 -19 -14 -28 14 -28 32 0 66 18 59 31 -9 13 -59 11
-73 -3z"/>
<path d="M882 1028 c5 -15 37 -18 41 -3 1 6 -9 12 -22 13 -16 3 -22 -1 -19
-10z"/>
<path d="M745 1428 c-11 -6 -23 -16 -27 -22 -9 -13 -11 -66 -2 -66 18 0 43 23
54 50 15 37 4 54 -25 38z"/>
<path d="M1026 1433 c-2 -3 0 -17 5 -33 21 -60 78 -79 64 -21 -4 14 -11 31
-16 37 -11 13 -45 24 -53 17z"/>
<path d="M667 1382 c-17 -19 -24 -72 -9 -72 21 1 37 23 39 54 2 40 -6 45 -30
18z"/>
<path d="M1108 1368 c8 -57 42 -81 42 -30 0 25 -25 62 -42 62 -2 0 -3 -15 0
-32z"/>
<path d="M666 1288 c-16 -23 -22 -98 -8 -98 15 0 42 58 42 89 0 36 -13 40 -34
9z"/>
<path d="M1100 1283 c0 -16 10 -44 21 -63 22 -35 22 -35 31 -11 10 27 3 58
-20 84 -22 24 -32 21 -32 -10z"/>
<path d="M610 1020 c0 -104 3 -190 6 -190 3 0 12 6 20 14 8 8 34 18 59 21 52
8 95 43 95 78 0 32 -55 103 -85 111 -27 7 -55 52 -55 88 0 39 -12 68 -26 68
-11 0 -14 -35 -14 -190z"/>
<path d="M1160 1191 c-5 -11 -10 -36 -10 -56 0 -37 -35 -85 -62 -85 -7 0 -25
-16 -40 -34 -56 -70 -27 -136 65 -151 23 -4 50 -14 60 -23 16 -14 17 -5 17
176 0 187 -5 218 -30 173z"/>
<path d="M660 1146 c0 -31 32 -87 43 -76 7 7 -26 110 -35 110 -5 0 -8 -15 -8
-34z"/>
<path d="M1120 1160 c0 -12 -7 -35 -16 -51 -19 -37 -11 -49 16 -24 21 19 29
95 10 95 -5 0 -10 -9 -10 -20z"/>
<path d="M800 936 c0 -27 -51 -76 -79 -76 -38 0 -82 -23 -96 -51 -17 -33 -22
-194 -5 -184 6 3 10 27 10 52 0 35 4 46 18 50 10 2 22 14 27 26 6 12 20 23 33
25 16 2 22 10 22 27 0 33 48 45 175 44 120 0 171 -14 168 -47 -2 -17 2 -22 22
-22 17 0 26 -7 30 -23 4 -12 16 -27 28 -32 18 -8 21 -17 19 -51 -2 -23 1 -45
7 -49 8 -4 11 22 11 83 0 111 -13 133 -93 151 -59 13 -84 33 -95 76 l-7 26
-43 -30 c-23 -17 -46 -31 -50 -31 -5 0 -26 13 -48 30 -48 36 -54 37 -54 6z"/>
<path d="M810 834 c-88 -16 -93 -27 -20 -43 61 -13 170 -14 223 -2 45 11 54
18 41 31 -11 11 -203 22 -244 14z"/>
<path d="M750 768 c0 -21 278 -24 299 -3 7 7 -42 10 -144 10 -85 0 -155 -3
-155 -7z"/>
<path d="M687 756 c-4 -10 -1 -16 8 -16 16 0 22 -20 29 -88 8 -78 17 -59 14
28 -3 78 -5 85 -24 88 -12 2 -24 -4 -27 -12z"/>
<path d="M1066 754 c-7 -19 -8 -159 -1 -152 6 6 13 38 18 88 2 18 12 39 22 46
9 7 14 17 10 23 -10 16 -42 13 -49 -5z"/>
<path d="M750 735 c0 -27 43 -38 145 -39 119 -1 155 7 155 34 0 16 -5 18 -37
12 -50 -9 -168 -9 -220 1 -35 6 -43 4 -43 -8z"/>
<path d="M647 713 c-16 -15 -5 -25 21 -18 41 10 51 25 16 25 -17 0 -34 -3 -37
-7z"/>
<path d="M1100 711 c0 -5 10 -11 23 -15 33 -9 37 -8 37 9 0 10 -10 15 -30 15
-16 0 -30 -4 -30 -9z"/>
<path d="M750 645 c0 -30 5 -55 10 -55 6 0 10 25 10 55 0 30 -4 55 -10 55 -5
0 -10 -25 -10 -55z"/>
<path d="M672 682 c-22 -7 -32 -28 -12 -26 6 1 19 2 30 3 11 0 20 8 20 16 0
16 -3 17 -38 7z"/>
<path d="M783 635 c0 -33 2 -45 4 -27 2 18 2 45 0 60 -2 15 -4 0 -4 -33z"/>
<path d="M1017 683 c-9 -8 -9 -87 -1 -96 3 -3 12 -3 20 0 19 7 20 103 1 103
-8 0 -17 -3 -20 -7z"/>
<path d="M1092 678 c5 -15 56 -29 64 -17 3 5 -7 14 -21 19 -35 13 -48 13 -43
-2z"/>
<path d="M800 630 c0 -27 5 -50 10 -50 6 0 10 23 10 50 0 28 -4 50 -10 50 -5
0 -10 -22 -10 -50z"/>
<path d="M830 625 c0 -30 5 -55 10 -55 6 0 10 25 10 55 0 30 -4 55 -10 55 -5
0 -10 -25 -10 -55z"/>
<path d="M860 625 c0 -48 2 -55 20 -55 18 0 20 7 20 55 0 48 -2 55 -20 55 -18
0 -20 -7 -20 -55z"/>
<path d="M917 673 c-11 -10 -8 -103 3 -103 6 0 10 25 10 55 0 56 -1 60 -13 48z"/>
<path d="M940 626 c0 -31 5 -56 10 -56 6 0 10 22 10 49 0 28 -4 53 -10 56 -6
4 -10 -15 -10 -49z"/>
<path d="M973 625 c0 -33 2 -45 4 -27 2 18 2 45 0 60 -2 15 -4 0 -4 -33z"/>
<path d="M993 630 c0 -30 2 -43 4 -27 2 15 2 39 0 55 -2 15 -4 2 -4 -28z"/>
<path d="M660 640 c-8 -5 -11 -12 -8 -15 9 -9 68 5 68 16 0 12 -41 11 -60 -1z"/>
<path d="M1090 640 c0 -12 48 -25 58 -16 8 9 -18 26 -40 26 -10 0 -18 -4 -18
-10z"/>
<path d="M622 608 c-13 -13 -17 -138 -4 -138 11 0 45 83 43 105 -4 31 -24 48
-39 33z"/>
<path d="M1150 596 c-13 -36 -14 -32 13 -85 l22 -46 3 64 c2 47 -1 68 -12 79
-14 14 -16 13 -26 -12z"/>
<path d="M670 590 c0 -18 3 -19 21 -9 17 9 24 8 31 -2 7 -11 8 -9 4 4 -3 10
-6 21 -6 23 0 2 -11 4 -25 4 -18 0 -25 -5 -25 -20z"/>
<path d="M1099 589 c15 -12 28 -16 34 -10 15 15 -2 31 -31 31 l-27 -1 24 -20z"/>
<path d="M1070 580 c0 -5 5 -10 11 -10 5 0 7 5 4 10 -3 6 -8 10 -11 10 -2 0
-4 -4 -4 -10z"/>
<path d="M726 529 l-26 -50 53 -24 c29 -14 71 -25 94 -25 l41 0 -31 31 c-17
18 -33 27 -35 20 -2 -6 -13 -16 -24 -22 -15 -8 -24 -7 -39 7 -25 22 -24 52 2
80 16 17 17 22 6 27 -10 4 -23 -10 -41 -44z"/>
<path d="M1038 553 c29 -20 30 -67 0 -87 -20 -14 -25 -14 -55 5 -27 17 -33 18
-33 5 0 -8 -10 -22 -22 -30 -22 -16 -21 -16 19 -16 37 0 153 35 153 45 0 3
-10 25 -22 50 -16 32 -28 45 -42 44 -20 0 -20 -1 2 -16z"/>
<path d="M795 550 c-6 -10 -5 -11 16 -14 6 0 16 -8 23 -17 11 -15 14 -15 33 7
11 12 18 26 15 29 -9 9 -81 5 -87 -5z"/>
<path d="M920 552 c0 -13 38 -46 56 -48 11 -2 13 3 8 18 -3 12 -2 18 3 15 5
-4 10 0 10 8 0 11 -12 15 -39 15 -21 0 -38 -4 -38 -8z"/>
<path d="M907 529 c7 -7 15 -10 18 -7 3 3 -2 9 -12 12 -14 6 -15 5 -6 -5z"/>
<path d="M770 504 c0 -17 22 -14 28 4 2 7 -3 12 -12 12 -9 0 -16 -7 -16 -16z"/>
<path d="M1005 511 c-7 -12 12 -24 25 -16 11 7 4 25 -10 25 -5 0 -11 -4 -15
-9z"/>
<path d="M885 500 c-8 -14 3 -30 21 -30 8 0 14 9 14 20 0 21 -24 28 -35 10z"/>
<path d="M785 480 c-16 -7 -17 -9 -3 -9 9 -1 20 4 23 9 7 11 7 11 -20 0z"/>
<path d="M998 478 c5 -5 16 -8 23 -6 8 3 3 7 -10 11 -17 4 -21 3 -13 -5z"/>
<path d="M700 437 c0 -13 12 -47 26 -76 58 -117 200 -150 296 -71 40 33 78
102 78 142 l0 26 -77 -25 c-92 -29 -175 -27 -263 6 -30 12 -56 21 -57 21 -2 0
-3 -10 -3 -23z"/>
</g>
</svg>
